<?xml version="1.0" encoding="utf-8"?>
<!-- Generator: Adobe Illustrator 22.0.0, SVG Export Plug-In . SVG Version: 6.00 Build 0)  -->
<svg version="1.1" id="Capa_1" xmlns="http://www.w3.org/2000/svg" xmlns:xlink="http://www.w3.org/1999/xlink" x="0px" y="0px"
	 viewBox="0 0 45.3 40" style="enable-background:new 0 0 45.3 40;" xml:space="preserve">
<style type="text/css">
	.st0{fill:#FFCD3C;}
	.st1{fill:#F2475C;}
</style>
<g>
	<ellipse transform="matrix(0.1602 -0.9871 0.9871 0.1602 -0.7271 39.1455)" class="st0" cx="22.6" cy="20" rx="20" ry="20"/>
	<g>
		<g>
			<g>
				<polygon class="st1" points="27.5,9.2 41.2,9.2 41.2,15.1 43.2,15.1 43.2,9.2 45.2,9.2 45.2,7.3 23.6,7.3 23.6,9.2 25.6,9.2 
					25.6,15.1 27.5,15.1 				"/>
				<rect x="27.5" y="15.1" class="st1" width="2" height="2"/>
				<rect x="33.4" y="15.1" class="st1" width="2" height="2"/>
				<rect x="31.5" y="13.1" class="st1" width="2" height="2"/>
				<rect x="35.4" y="13.1" class="st1" width="2" height="2"/>
				<rect x="29.5" y="17.1" class="st1" width="2" height="2"/>
				<rect x="39.3" y="15.1" class="st1" width="2" height="2"/>
				<rect x="37.3" y="17.1" class="st1" width="2" height="2"/>
				<polygon class="st1" points="37.3,19 35.4,19 35.4,21 35.4,22.9 37.3,22.9 37.3,21 				"/>
				<rect x="27.5" y="24.9" class="st1" width="2" height="2"/>
				<rect x="29.5" y="22.9" class="st1" width="2" height="2"/>
				<polygon class="st1" points="33.4,21 33.4,19 31.5,19 31.5,21 31.5,22.9 33.4,22.9 				"/>
				<rect x="31.5" y="28.8" class="st1" width="2" height="2"/>
				<rect x="35.4" y="28.8" class="st1" width="2" height="2"/>
				<rect x="33.4" y="26.9" class="st1" width="2" height="2"/>
				<polygon class="st1" points="41.2,32.7 39.3,32.7 39.3,30.8 37.3,30.8 37.3,32.7 35.4,32.7 35.4,30.8 33.4,30.8 33.4,32.7 
					31.5,32.7 31.5,30.8 29.5,30.8 29.5,32.7 27.5,32.7 27.5,26.9 25.6,26.9 25.6,32.7 23.6,32.7 23.6,34.7 45.2,34.7 45.2,32.7 
					43.2,32.7 43.2,26.9 41.2,26.9 				"/>
				<rect x="39.3" y="24.9" class="st1" width="2" height="2"/>
				<rect x="37.3" y="22.9" class="st1" width="2" height="2"/>
			</g>
			<g>
				<rect x="4" y="5.3" class="st1" width="2" height="2"/>
				<rect x="6" y="7.3" class="st1" width="2" height="2"/>
				<rect x="8" y="9.2" class="st1" width="2" height="2"/>
				<rect x="9.9" y="11.2" class="st1" width="2" height="2"/>
				<rect x="11.9" y="13.1" class="st1" width="2" height="2"/>
				<rect x="13.8" y="15.1" class="st1" width="2" height="2"/>
				<rect x="15.8" y="17.1" class="st1" width="2" height="2"/>
				<rect x="17.7" y="19" class="st1" width="2" height="2"/>
				<rect x="19.7" y="21" class="st1" width="2" height="2"/>
				<polygon class="st1" points="21.7,22.9 21.7,24.9 13.8,24.9 13.8,28.8 15.8,28.8 15.8,26.9 23.6,26.9 23.6,22.9 				"/>
				<rect x="15.8" y="28.8" class="st1" width="2" height="3.9"/>
				<rect x="17.7" y="32.7" class="st1" width="2" height="3.9"/>
				<rect x="13.8" y="36.6" class="st1" width="3.9" height="2"/>
				<rect x="11.9" y="32.7" class="st1" width="2" height="3.9"/>
				<rect x="9.9" y="28.8" class="st1" width="2" height="3.9"/>
				<polygon class="st1" points="2.1,5.3 4,5.3 4,3.4 2.1,3.4 2.1,1.4 0.1,1.4 0.1,34.7 4,34.7 4,32.7 2.1,32.7 				"/>
				<rect x="4" y="30.8" class="st1" width="2" height="2"/>
				<rect x="6" y="28.8" class="st1" width="2" height="2"/>
				<rect x="8" y="26.9" class="st1" width="2" height="2"/>
			</g>
		</g>
	</g>
</g>
</svg>
